# xmcd CD database file
#
# Track frame offsets:
#	150
#	11500
#	28648
#	39425
#	65010
#	76918
#	91118
#	100893
#	118948
#
# Disc length: 1695 seconds
#
# Revision: 2
# Processed by: cddbd v1.5.1PL2 Copyright (c) Steve Scherf et al.
# Submitted via: CDex 1.51
#
DISCID=67069d09
DTITLE=James Cotton - Two Sides Of The Blues
DYEAR=1900
DGENRE=
TTITLE0=Good Time Charlie
TTITLE1=There Is Something On Your Mind
TTITLE2=Turn Your Lovelight
TTITLE3=Jelly, Jelly
TTITLE4=South Side Boogie
TTITLE5=So Glad I'm Living
TTITLE6=Diggin' My Potatoes
TTITLE7=V-8 Ford Blues
TTITLE8=Polly Put The Kettle On
EXTD=
EXTT0=
EXTT1=
EXTT2=
EXTT3=
EXTT4=
EXTT5=
EXTT6=
EXTT7=
EXTT8=
PLAYORDER=
